<svg height="511pt" viewBox="-3 0 511 511.99998" width="511pt" xmlns="http://www.w3.org/2000/svg"><path d="m56.285156 274.320312c-48.300781-16.363281-125.117187 99.0625 73.996094 179.246094l-4.398438-65.78125-44.914062-65.261718zm0 0" fill="#eee07d"/><path d="m55.238281 273.988281c-48.34375-14.367187-122.636719 99.96875 75.042969 179.578125l-.070312-1.039062c-123.394532-68.320313-108.949219-152.054688-74.972657-178.539063zm0 0" fill="#e1ba68"/><path d="m448.820312 274.320312c48.300782-16.359374 125.117188 99.0625-73.996093 179.246094l4.398437-65.78125 44.914063-65.261718zm0 0" fill="#eee07d"/><path d="m448.820312 274.320312-24.683593 48.203126-44.914063 65.261718-4.398437 65.78125c24.808593-9.988281 45.332031-20.527344 62.164062-31.292968 6.636719-11.335938 12.585938-23.234376 17.792969-35.675782 13.851562-33.082031 22.132812-69.132812 24.667969-107.191406-9.664063-6.261719-20.742188-8.433594-30.628907-5.085938zm0 0" fill="#e1ba68"/><path d="m448.820312 274.320312c-8.640624 149.824219-112.59375 237.679688-196.269531 237.679688-83.671875 0-187.625-87.855469-196.265625-237.679688zm0 0" fill="#a6adb9"/><path d="m256.40625 511.9375c1.277344-.039062 2.558594-.101562 3.835938-.183594 2.574218-.164062 5.164062-.40625 7.761718-.726562-80.503906-9.9375-172.695312-95.984375-180.8125-236.707032h-30.90625c1.484375 25.75 5.785156 49.671876 12.316406 71.632813 7.167969 24.109375 17.78125 47.96875 31.519532 69.414063 22.367187 34.917968 53.800781 65.113281 91.742187 82.488281 18.988281 8.695312 39.722657 14.144531 60.6875 14.144531 1.28125 0 2.566407-.023438 3.855469-.0625zm0 0" fill="#8895a2"/><path d="m294.976562 61.851562.007813-.003906s-2.585937-73.578125-69.714844-60.226562c-7.632812 1.515625-11.679687 9.921875-8.003906 16.777344l6.703125 12.523437h-12.585938c-11.066406 0-18.257812 11.648437-13.300781 21.539063l5.480469 10.933593v.003907c-85.015625 21.773437-147.855469 98.894531-147.855469 190.699218 0 6.863282.199219 13.601563.578125 20.222656 51.917969 46.960938 120.75 75.570313 196.265625 75.570313 75.519531 0 144.351563-28.609375 196.269531-75.570313.378907-6.621093.578126-13.359374.578126-20.222656 0-94.148437-66.097657-172.84375-154.421876-192.246094zm0 0" fill="#eee07d"/><path d="m87.191406 274.320312c-.378906-6.621093-.582031-13.359374-.582031-20.222656 0-91.640625 31.828125-168.648437 116.507813-190.578125-84.789063 21.929688-147.410157 98.933594-147.410157 190.578125 0 6.863282.199219 13.601563.578125 20.222656 10.480469 9.480469 21.664063 18.199219 33.441406 26.101563-1.167968-8.480469-2.019531-17.179687-2.535156-26.101563zm0 0" fill="#e1ba68"/><path d="m162.386719 204.945312c-4.269531 0-7.726563-3.460937-7.726563-7.726562v-17.535156c0-4.265625 3.457032-7.726563 7.726563-7.726563 4.265625 0 7.726562 3.460938 7.726562 7.726563v17.535156c0 4.265625-3.460937 7.726562-7.726562 7.726562zm0 0" fill="#424952"/><path d="m174.324219 230.714844h-23.878907c-4.265624 0-7.726562-3.460938-7.726562-7.726563 0-4.269531 3.460938-7.726562 7.726562-7.726562h23.878907c4.265625 0 7.726562 3.457031 7.726562 7.726562 0 4.265625-3.460937 7.726563-7.726562 7.726563zm0 0" fill="#e1738c"/><path d="m342.71875 204.945312c-4.265625 0-7.726562-3.460937-7.726562-7.726562v-17.535156c0-4.265625 3.460937-7.726563 7.726562-7.726563 4.269531 0 7.726562 3.460938 7.726562 7.726563v17.535156c0 4.265625-3.457031 7.726562-7.726562 7.726562zm0 0" fill="#424952"/><path d="m354.660156 230.714844h-23.878906c-4.265625 0-7.726562-3.460938-7.726562-7.726563 0-4.269531 3.460937-7.726562 7.726562-7.726562h23.878906c4.265625 0 7.726563 3.457031 7.726563 7.726562 0 4.265625-3.460938 7.726563-7.726563 7.726563zm0 0" fill="#e1738c"/><path d="m290.710938 225.898438c.0625.820312.085937 1.652343.085937 2.484374 0 22.054688-17.117187 39.929688-38.246094 39.929688-21.125 0-38.242187-17.875-38.242187-39.929688 0-.832031.019531-1.664062.085937-2.484374zm0 0" fill="#e48949"/><path d="m290.710938 225.898438c-10.304688 5.125-23.621094 8.199218-38.160157 8.199218-14.535156 0-27.851562-3.074218-38.15625-8.199218 1.21875-20.894532 17.832031-37.441407 38.15625-37.441407 20.328125 0 36.941407 16.546875 38.160157 37.441407zm0 0" fill="#e9a577"/></svg>