<svg height="511pt" viewBox="-3 0 511 511.99741" width="511pt" xmlns="http://www.w3.org/2000/svg"><path d="m62.167969 273.78125c-46.886719-15.878906-121.453125 96.160156 71.828125 173.996094l-4.273438-63.855469-43.59375-63.351563zm0 0" fill="#eee07d"/><path d="m61.148438 273.460938c-46.925782-13.945313-119.039063 97.039062 72.847656 174.316406l-.070313-1.011719c-119.777343-66.316406-105.757812-147.597656-72.777343-173.304687zm0 0" fill="#e1ba68"/><path d="m443.195312 273.78125c46.882813-15.878906 121.449219 96.160156-71.828124 173.996094l4.269531-63.855469 43.597656-63.351563zm0 0" fill="#eee07d"/><path d="m443.195312 273.78125-23.960937 46.789062-43.597656 63.351563-4.269531 63.855469c24.082031-9.699219 44.003906-19.929688 60.34375-30.375 6.445312-11.003906 12.21875-22.558594 17.273437-34.632813 13.441406-32.113281 21.484375-67.109375 23.945313-104.050781-9.382813-6.074219-20.136719-8.1875-29.734376-4.9375zm0 0" fill="#e1ba68"/><path d="m443.195312 273.78125c-8.386718 145.433594-109.292968 230.714844-190.515624 230.714844-81.222657 0-182.125-85.28125-190.511719-230.714844zm0 0" fill="#a6adb9"/><path d="m256.421875 504.433594c1.242187-.039063 2.484375-.097656 3.722656-.175782 2.5-.160156 5.011719-.394531 7.535157-.707031-78.144532-9.648437-167.636719-93.171875-175.515626-229.769531h-29.996093c1.441406 25 5.617187 48.21875 11.953125 69.53125 6.957031 23.40625 17.261718 46.566406 30.59375 67.382812 21.714844 33.894532 52.226562 63.207032 89.058594 80.070313 18.429687 8.441406 38.554687 13.730469 58.90625 13.730469 1.246093 0 2.492187-.023438 3.742187-.0625zm0 0" fill="#8895a2"/><path d="m293.863281 67.539062h.007813s-2.511719-71.421874-67.671875-58.464843c-7.410157 1.472656-11.339844 9.632812-7.773438 16.289062l6.511719 12.15625h-12.21875c-10.742188 0-17.722656 11.308594-12.910156 20.90625l5.320312 10.617188c-82.523437 21.136719-143.523437 95.996093-143.523437 185.113281 0 6.660156.191406 13.199219.5625 19.625 50.394531 45.585938 117.210937 73.355469 190.511719 73.355469 73.304687 0 140.121093-27.769531 190.515624-73.355469.367188-6.425781.5625-12.964844.5625-19.625 0-91.394531-64.160156-167.78125-149.894531-186.617188zm0 0" fill="#eee07d"/><path d="m92.164062 273.78125c-.367187-6.425781-.558593-12.964844-.558593-19.625 0-88.960938 30.890625-163.710938 113.089843-184.996094-82.304687 21.285156-143.089843 96.035156-143.089843 184.996094 0 6.660156.191406 13.199219.5625 19.625 10.171875 9.203125 21.027343 17.667969 32.460937 25.335938-1.132812-8.226563-1.964844-16.671876-2.464844-25.335938zm0 0" fill="#e1ba68"/><path d="m176.746094 231.453125h-23.179688c-4.140625 0-7.5-3.355469-7.5-7.5 0-4.140625 3.359375-7.5 7.5-7.5h23.179688c4.140625 0 7.5 3.359375 7.5 7.5 0 4.144531-3.359375 7.5-7.5 7.5zm0 0" fill="#e1738c"/><path d="m351.796875 231.453125h-23.179687c-4.140626 0-7.5-3.355469-7.5-7.5 0-4.140625 3.359374-7.5 7.5-7.5h23.179687c4.140625 0 7.5 3.359375 7.5 7.5 0 4.144531-3.359375 7.5-7.5 7.5zm0 0" fill="#e1738c"/><path d="m289.722656 226.78125c.058594.796875.082032 1.601562.082032 2.410156 0 21.40625-16.617188 38.757813-37.125 38.757813-20.507813 0-37.121094-17.351563-37.121094-38.757813 0-.804687.019531-1.613281.082031-2.410156zm0 0" fill="#e48949"/><path d="m289.722656 226.78125c-10.003906 4.972656-22.929687 7.957031-37.042968 7.957031-14.109376 0-27.035157-2.984375-37.039063-7.957031 1.183594-20.285156 17.308594-36.347656 37.039063-36.347656 19.730468 0 35.855468 16.0625 37.042968 36.347656zm0 0" fill="#e9a577"/><path d="m172.660156 198.945312v-17.019531c0-4.140625-3.359375-7.5-7.5-7.5-4.144531 0-7.5 3.359375-7.5 7.5v17.019531c0 4.140626 3.355469 7.5 7.5 7.5 4.140625 0 7.5-3.359374 7.5-7.5zm0 0"/><path d="m347.707031 198.945312v-17.019531c0-4.140625-3.355469-7.5-7.5-7.5-4.140625 0-7.496093 3.359375-7.496093 7.5v17.019531c0 4.140626 3.355468 7.5 7.496093 7.5 4.144531 0 7.5-3.359374 7.5-7.5zm0 0"/><path d="m484.722656 278.457031c-9.480468-8.828125-20.898437-13.691406-32.152344-13.691406-.492187 0-.984374.011719-1.476562.03125.109375-3.558594.167969-7.113281.167969-10.640625 0-45.523438-15.796875-90.007812-44.480469-125.25-27.105469-33.300781-64.554688-57.097656-105.9375-67.425781-1.40625-11.125-6.539062-35.519531-24.960938-50.105469-13.277343-10.511719-30.488281-13.761719-51.148437-9.652344-12.121094 2.410156-18.777344 16.242188-12.917969 27.1875l.597656 1.117188c-7.542968.101562-14.390624 3.976562-18.363281 10.410156-4.027343 6.523438-4.378906 14.503906-.945312 21.355469l1.25 2.496093c-83.035157 25.410157-140.25 102.195313-140.25 189.867188 0 3.527344.058593 7.085938.167969 10.640625-.492188-.019531-.984376-.03125-1.476563-.03125-11.253906 0-22.675781 4.863281-32.15625 13.691406-9.570313 8.914063-16.273437 21.207031-18.871094 34.613281-3.125 16.128907-2 41.421876 21.132813 70.292969 21.570312 26.921875 57.503906 50.726563 106.800781 70.761719 13.890625 14.140625 29.257813 26.144531 45.707031 35.59375 3.550782 2.035156 8.199219.78125 10.238282-2.769531 2.0625-3.589844.824218-8.175781-2.765626-10.238281-26.015624-14.941407-48.164062-36.246094-65.472656-60.65625-24.792968-34.96875-40.753906-77.90625-46.191406-124.753907.253906.203125.515625.398438.773438.601563 20.902343 16.523437 44.078124 30.167968 68.679687 40.398437 35.386719 14.722657 73.6875 22.339844 112.011719 22.339844 40.585937 0 79.890625-8.199219 116.824218-24.371094 3.792969-1.660156 5.523438-6.085937 3.863282-9.878906-1.664063-3.792969-6.085938-5.523437-9.878906-3.859375-35.023438 15.332031-72.304688 23.109375-110.808594 23.109375-38.179688 0-76.390625-7.863281-111.308594-23.351563-24.675781-10.949218-47.691406-25.335937-68.234375-42.859374-.792969-.675782-3.222656-2.800782-3.648437-3.179688-.257813-5.359375-.386719-10.761719-.386719-16.09375 0-83.917969 56.699219-157.050781 137.882812-177.84375 4.554688-1.167969 6.957031-6.511719 4.8125-10.691406 0 0-5.289062-10.550782-5.289062-10.550782-2.289063-4.578124 1.144531-10.046874 6.207031-10.046874h12.21875c5.566406 0 9.242188-6.128907 6.613281-11.042969l-6.511719-12.15625c-1.183593-2.210938.226563-4.917969 2.621094-5.394531 16.121094-3.203126 29.191406-.964844 38.855469 6.65625 17.617187 13.894531 19.683594 41.675781 19.847656 44.488281.203125 3.484375 2.363281 6.515625 5.890625 7.292969 40.207032 8.832031 76.75 31.386718 102.890625 63.503906 26.515625 32.578125 41.117188 73.695312 41.117188 115.785156 0 5.328125-.132813 10.722656-.386719 16.082031-.597656.527344-1.191406 1.054688-1.792969 1.578125-13.855469 12.042969-28.894531 22.722656-44.851562 31.800782-3.457031 1.964843-4.863281 6.617187-2.8125 10.226562 2.050781 3.601562 6.628906 4.859375 10.230469 2.8125 13.121093-7.46875 25.683593-15.96875 37.5-25.367188-6.898438 59.429688-30.714844 112.574219-68.035157 151.132813-33.203125 34.257813-75.261719 54.574219-113.429687 54.574219-14.132813 0-28.851563-2.730469-43.753906-8.125-3.894532-1.410156-8.195313.605468-9.601563 4.5-1.410156 3.894531.605469 8.195312 4.5 9.601562 16.542969 5.988282 32.980469 9.023438 48.855469 9.023438 21.371094 0 44.242187-5.65625 66.148437-16.359375 20.214844-9.878907 39.71875-24.152344 56.789063-41.496094 49.316406-20.039063 85.261718-43.847656 106.839844-70.78125 23.128906-28.871094 24.257812-54.164063 21.128906-70.292969-2.59375-13.402344-9.296875-25.695312-18.867188-34.609375zm-450.113281 95.527344c-19.542969-24.394531-20.636719-45.039063-18.113281-58.0625 4.386718-22.632813 21.902344-36.15625 36.300781-36.15625.761719 0 1.515625.039063 2.261719.113281.015625.199219.035156.402344.050781.601563 3.59375 47.3125 16.796875 90.277343 39.289063 127.789062 4.03125 6.726563 8.335937 13.203125 12.878906 19.410157-32.570313-16.074219-56.945313-34.074219-72.667969-53.695313zm436.144531 0c-15.714844 19.617187-40.078125 37.609375-72.628906 53.679687 11.90625-16.253906 21.988281-34.1875 30.105469-53.578124 10.789062-25.769532 17.828125-53.597657 21.03125-82.921876.40625-3.714843.769531-7.527343 1.050781-11.285156 14.804688-1.492187 33.9375 12.214844 38.554688 36.042969 2.523437 13.023437 1.429687 33.667969-18.113282 58.0625zm0 0"/><path d="m252.683594 275.453125c24.605468 0 44.621094-20.75 44.621094-46.257813 0-1.035156-.101563-2.964843-.101563-2.984374-.003906-.011719-.003906-.019532-.003906-.03125-1.503907-24.261719-21.023438-43.242188-44.515625-43.242188-23.492188 0-43.011719 18.980469-44.515625 43.242188 0 .011718-.003907.019531-.003907.03125 0 .019531-.101562 1.949218-.101562 2.984374 0 25.507813 20.015625 46.257813 44.621094 46.257813zm0-15c-13.367188 0-24.695313-9.390625-28.367188-22.25 9.171875 2.761719 18.796875 4.039063 28.367188 4.039063 9.570312 0 19.195312-1.277344 28.367187-4.039063-3.671875 12.859375-15 22.25-28.367187 22.25zm0-62.515625c13.976562 0 25.84375 10.308594 28.867187 24.25-.078125.03125-.15625.0625-.234375.089844-9.089844 3.472656-18.925781 4.964844-28.632812 4.964844-7.542969 0-15.128906-.917969-22.402344-2.925782-.480469-.132812-6.523438-1.851562-6.464844-2.128906 3.023438-13.941406 14.890625-24.25 28.867188-24.25zm0 0"/></svg>